<?xml version="1.0" encoding="UTF-8" standalone="no"?>
<!DOCTYPE svg PUBLIC "-//W3C//DTD SVG 1.1//EN"
 "http://www.w3.org/Graphics/SVG/1.1/DTD/svg11.dtd">
<!-- Generated by graphviz version 2.38.0 (20140413.2041)
 -->
<!-- Title: controllers_diagram Pages: 1 -->
<svg width="607pt" height="631pt"
 viewBox="0.00 0.00 606.51 631.00" xmlns="http://www.w3.org/2000/svg" xmlns:xlink="http://www.w3.org/1999/xlink">
<g id="graph0" class="graph" transform="scale(1 1) rotate(0) translate(275.821 372.5)">
<title>controllers_diagram</title>
<polygon fill="none" stroke="none" points="-275.821,258.5 -275.821,-372.5 330.688,-372.5 330.688,258.5 -275.821,258.5"/>
<!-- _diagram_info -->
<g id="node1" class="node"><title>_diagram_info</title>
<text text-anchor="start" x="127.312" y="161.9" font-family="Times,serif" font-size="13.00">Controllers diagram</text>
<text text-anchor="start" x="127.312" y="174.9" font-family="Times,serif" font-size="13.00">Date: Jun 20 2016 &#45; 09:45</text>
<text text-anchor="start" x="127.312" y="187.9" font-family="Times,serif" font-size="13.00">Migration version: 20160610123604</text>
<text text-anchor="start" x="127.312" y="200.9" font-family="Times,serif" font-size="13.00">Generated by RailRoady 1.4.2</text>
<text text-anchor="start" x="127.312" y="213.9" font-family="Times,serif" font-size="13.00">http://railroady.prestonlee.com</text>
</g>
<!-- Admin::CategoriesController -->
<g id="node2" class="node"><title>Admin::CategoriesController</title>
<path fill="none" stroke="black" d="M-90.0415,135C-90.0415,135 66.0415,135 66.0415,135 72.0415,135 78.0415,129 78.0415,123 78.0415,123 78.0415,-97 78.0415,-97 78.0415,-103 72.0415,-109 66.0415,-109 66.0415,-109 -90.0415,-109 -90.0415,-109 -96.0415,-109 -102.042,-103 -102.042,-97 -102.042,-97 -102.042,123 -102.042,123 -102.042,129 -96.0415,135 -90.0415,135"/>
<text text-anchor="middle" x="-12" y="-93.8" font-family="Times,serif" font-size="14.00">Admin::CategoriesController</text>
<polyline fill="none" stroke="black" points="-102.042,-87 78.0415,-87 "/>
<text text-anchor="start" x="-94.0415" y="-71.8" font-family="Times,serif" font-size="14.00">update</text>
<text text-anchor="start" x="-94.0415" y="-57.8" font-family="Times,serif" font-size="14.00">change_status</text>
<text text-anchor="start" x="-94.0415" y="-43.8" font-family="Times,serif" font-size="14.00">create</text>
<text text-anchor="start" x="-94.0415" y="-29.8" font-family="Times,serif" font-size="14.00">desativar</text>
<text text-anchor="start" x="-94.0415" y="-15.8" font-family="Times,serif" font-size="14.00">destroy</text>
<text text-anchor="start" x="-94.0415" y="-1.8" font-family="Times,serif" font-size="14.00">edit</text>
<text text-anchor="start" x="-94.0415" y="12.2" font-family="Times,serif" font-size="14.00">index</text>
<text text-anchor="start" x="-94.0415" y="26.2" font-family="Times,serif" font-size="14.00">new</text>
<text text-anchor="start" x="-94.0415" y="40.2" font-family="Times,serif" font-size="14.00">show</text>
<text text-anchor="start" x="-94.0415" y="54.2" font-family="Times,serif" font-size="14.00">ativar</text>
<polyline fill="none" stroke="black" points="-102.042,61 78.0415,61 "/>
<polyline fill="none" stroke="black" points="-102.042,85 78.0415,85 "/>
<text text-anchor="start" x="-94.0415" y="100.2" font-family="Times,serif" font-size="14.00">_layout</text>
<text text-anchor="start" x="-94.0415" y="114.2" font-family="Times,serif" font-size="14.00">category_params</text>
<text text-anchor="start" x="-94.0415" y="128.2" font-family="Times,serif" font-size="14.00">set_category</text>
</g>
<!-- Admin::PostsController -->
<g id="node3" class="node"><title>Admin::PostsController</title>
<path fill="none" stroke="black" d="M-55.8931,-137C-55.8931,-137 69.8931,-137 69.8931,-137 75.8931,-137 81.8931,-143 81.8931,-149 81.8931,-149 81.8931,-327 81.8931,-327 81.8931,-333 75.8931,-339 69.8931,-339 69.8931,-339 -55.8931,-339 -55.8931,-339 -61.8931,-339 -67.8931,-333 -67.8931,-327 -67.8931,-327 -67.8931,-149 -67.8931,-149 -67.8931,-143 -61.8931,-137 -55.8931,-137"/>
<text text-anchor="middle" x="7" y="-323.8" font-family="Times,serif" font-size="14.00">Admin::PostsController</text>
<polyline fill="none" stroke="black" points="-67.8931,-317 81.8931,-317 "/>
<text text-anchor="start" x="-59.8931" y="-301.8" font-family="Times,serif" font-size="14.00">index</text>
<text text-anchor="start" x="-59.8931" y="-287.8" font-family="Times,serif" font-size="14.00">destroy</text>
<text text-anchor="start" x="-59.8931" y="-273.8" font-family="Times,serif" font-size="14.00">edit</text>
<text text-anchor="start" x="-59.8931" y="-259.8" font-family="Times,serif" font-size="14.00">create</text>
<text text-anchor="start" x="-59.8931" y="-245.8" font-family="Times,serif" font-size="14.00">new</text>
<text text-anchor="start" x="-59.8931" y="-231.8" font-family="Times,serif" font-size="14.00">show</text>
<text text-anchor="start" x="-59.8931" y="-217.8" font-family="Times,serif" font-size="14.00">update</text>
<polyline fill="none" stroke="black" points="-67.8931,-211 81.8931,-211 "/>
<polyline fill="none" stroke="black" points="-67.8931,-187 81.8931,-187 "/>
<text text-anchor="start" x="-59.8931" y="-171.8" font-family="Times,serif" font-size="14.00">_layout</text>
<text text-anchor="start" x="-59.8931" y="-157.8" font-family="Times,serif" font-size="14.00">post_params</text>
<text text-anchor="start" x="-59.8931" y="-143.8" font-family="Times,serif" font-size="14.00">set_post</text>
</g>
<!-- Admin::ProductsController -->
<g id="node4" class="node"><title>Admin::ProductsController</title>
<path fill="none" stroke="black" d="M131.393,118C131.393,118 276.607,118 276.607,118 282.607,118 288.607,112 288.607,106 288.607,106 288.607,-72 288.607,-72 288.607,-78 282.607,-84 276.607,-84 276.607,-84 131.393,-84 131.393,-84 125.393,-84 119.393,-78 119.393,-72 119.393,-72 119.393,106 119.393,106 119.393,112 125.393,118 131.393,118"/>
<text text-anchor="middle" x="204" y="-68.8" font-family="Times,serif" font-size="14.00">Admin::ProductsController</text>
<polyline fill="none" stroke="black" points="119.393,-62 288.607,-62 "/>
<text text-anchor="start" x="127.393" y="-46.8" font-family="Times,serif" font-size="14.00">index</text>
<text text-anchor="start" x="127.393" y="-32.8" font-family="Times,serif" font-size="14.00">destroy</text>
<text text-anchor="start" x="127.393" y="-18.8" font-family="Times,serif" font-size="14.00">edit</text>
<text text-anchor="start" x="127.393" y="-4.8" font-family="Times,serif" font-size="14.00">create</text>
<text text-anchor="start" x="127.393" y="9.2" font-family="Times,serif" font-size="14.00">new</text>
<text text-anchor="start" x="127.393" y="23.2" font-family="Times,serif" font-size="14.00">show</text>
<text text-anchor="start" x="127.393" y="37.2" font-family="Times,serif" font-size="14.00">update</text>
<polyline fill="none" stroke="black" points="119.393,44 288.607,44 "/>
<polyline fill="none" stroke="black" points="119.393,68 288.607,68 "/>
<text text-anchor="start" x="127.393" y="83.2" font-family="Times,serif" font-size="14.00">_layout</text>
<text text-anchor="start" x="127.393" y="97.2" font-family="Times,serif" font-size="14.00">product_params</text>
<text text-anchor="start" x="127.393" y="111.2" font-family="Times,serif" font-size="14.00">set_product</text>
</g>
<!-- Admin::UsersController -->
<g id="node5" class="node"><title>Admin::UsersController</title>
<path fill="none" stroke="black" d="M130.952,-120C130.952,-120 259.048,-120 259.048,-120 265.048,-120 271.048,-126 271.048,-132 271.048,-132 271.048,-310 271.048,-310 271.048,-316 265.048,-322 259.048,-322 259.048,-322 130.952,-322 130.952,-322 124.952,-322 118.952,-316 118.952,-310 118.952,-310 118.952,-132 118.952,-132 118.952,-126 124.952,-120 130.952,-120"/>
<text text-anchor="middle" x="195" y="-306.8" font-family="Times,serif" font-size="14.00">Admin::UsersController</text>
<polyline fill="none" stroke="black" points="118.952,-300 271.048,-300 "/>
<text text-anchor="start" x="126.952" y="-284.8" font-family="Times,serif" font-size="14.00">index</text>
<text text-anchor="start" x="126.952" y="-270.8" font-family="Times,serif" font-size="14.00">destroy</text>
<text text-anchor="start" x="126.952" y="-256.8" font-family="Times,serif" font-size="14.00">edit</text>
<text text-anchor="start" x="126.952" y="-242.8" font-family="Times,serif" font-size="14.00">create</text>
<text text-anchor="start" x="126.952" y="-228.8" font-family="Times,serif" font-size="14.00">new</text>
<text text-anchor="start" x="126.952" y="-214.8" font-family="Times,serif" font-size="14.00">show</text>
<text text-anchor="start" x="126.952" y="-200.8" font-family="Times,serif" font-size="14.00">update</text>
<polyline fill="none" stroke="black" points="118.952,-194 271.048,-194 "/>
<polyline fill="none" stroke="black" points="118.952,-170 271.048,-170 "/>
<text text-anchor="start" x="126.952" y="-154.8" font-family="Times,serif" font-size="14.00">_layout</text>
<text text-anchor="start" x="126.952" y="-140.8" font-family="Times,serif" font-size="14.00">set_user</text>
<text text-anchor="start" x="126.952" y="-126.8" font-family="Times,serif" font-size="14.00">user_params</text>
</g>
<!-- AdminController -->
<g id="node6" class="node"><title>AdminController</title>
<path fill="none" stroke="black" d="M-242.879,135C-242.879,135 -145.121,135 -145.121,135 -139.121,135 -133.121,129 -133.121,123 -133.121,123 -133.121,57 -133.121,57 -133.121,51 -139.121,45 -145.121,45 -145.121,45 -242.879,45 -242.879,45 -248.879,45 -254.879,51 -254.879,57 -254.879,57 -254.879,123 -254.879,123 -254.879,129 -248.879,135 -242.879,135"/>
<text text-anchor="middle" x="-194" y="60.2" font-family="Times,serif" font-size="14.00">AdminController</text>
<polyline fill="none" stroke="black" points="-254.879,67 -133.121,67 "/>
<polyline fill="none" stroke="black" points="-254.879,91 -133.121,91 "/>
<text text-anchor="start" x="-246.879" y="106.2" font-family="Times,serif" font-size="14.00">permission_denied</text>
<polyline fill="none" stroke="black" points="-254.879,113 -133.121,113 "/>
<text text-anchor="start" x="-246.879" y="128.2" font-family="Times,serif" font-size="14.00">_layout</text>
</g>
<!-- ApplicationController -->
<g id="node7" class="node"><title>ApplicationController</title>
<path fill="none" stroke="black" d="M-259.821,-103C-259.821,-103 -144.179,-103 -144.179,-103 -138.179,-103 -132.179,-109 -132.179,-115 -132.179,-115 -132.179,-183 -132.179,-183 -132.179,-189 -138.179,-195 -144.179,-195 -144.179,-195 -259.821,-195 -259.821,-195 -265.821,-195 -271.821,-189 -271.821,-183 -271.821,-183 -271.821,-115 -271.821,-115 -271.821,-109 -265.821,-103 -259.821,-103"/>
<text text-anchor="middle" x="-202" y="-179.8" font-family="Times,serif" font-size="14.00">ApplicationController</text>
<polyline fill="none" stroke="black" points="-271.821,-173 -132.179,-173 "/>
<polyline fill="none" stroke="black" points="-271.821,-149 -132.179,-149 "/>
<polyline fill="none" stroke="black" points="-271.821,-125 -132.179,-125 "/>
<text text-anchor="start" x="-263.821" y="-109.8" font-family="Times,serif" font-size="14.00">_layout</text>
</g>
<!-- ContatosController -->
<g id="node8" class="node"><title>ContatosController</title>
<path fill="none" stroke="black" d="M-242.662,16C-242.662,16 -143.338,16 -143.338,16 -137.338,16 -131.338,10 -131.338,4 -131.338,4 -131.338,-62 -131.338,-62 -131.338,-68 -137.338,-74 -143.338,-74 -143.338,-74 -242.662,-74 -242.662,-74 -248.662,-74 -254.662,-68 -254.662,-62 -254.662,-62 -254.662,4 -254.662,4 -254.662,10 -248.662,16 -242.662,16"/>
<text text-anchor="middle" x="-193" y="-58.8" font-family="Times,serif" font-size="14.00">ContatosController</text>
<polyline fill="none" stroke="black" points="-254.662,-52 -131.338,-52 "/>
<text text-anchor="start" x="-246.662" y="-36.8" font-family="Times,serif" font-size="14.00">index</text>
<polyline fill="none" stroke="black" points="-254.662,-30 -131.338,-30 "/>
<polyline fill="none" stroke="black" points="-254.662,-6 -131.338,-6 "/>
<text text-anchor="start" x="-246.662" y="9.2" font-family="Times,serif" font-size="14.00">_layout</text>
</g>
<!-- PagesController -->
<g id="node9" class="node"><title>PagesController</title>
<path fill="none" stroke="black" d="M-5.10352,254C-5.10352,254 77.1035,254 77.1035,254 83.1035,254 89.1035,248 89.1035,242 89.1035,242 89.1035,176 89.1035,176 89.1035,170 83.1035,164 77.1035,164 77.1035,164 -5.10352,164 -5.10352,164 -11.1035,164 -17.1035,170 -17.1035,176 -17.1035,176 -17.1035,242 -17.1035,242 -17.1035,248 -11.1035,254 -5.10352,254"/>
<text text-anchor="middle" x="36" y="179.2" font-family="Times,serif" font-size="14.00">PagesController</text>
<polyline fill="none" stroke="black" points="-17.1035,186 89.1035,186 "/>
<text text-anchor="start" x="-9.10352" y="201.2" font-family="Times,serif" font-size="14.00">home</text>
<polyline fill="none" stroke="black" points="-17.1035,208 89.1035,208 "/>
<polyline fill="none" stroke="black" points="-17.1035,232 89.1035,232 "/>
<text text-anchor="start" x="-9.10352" y="247.2" font-family="Times,serif" font-size="14.00">_layout</text>
</g>
<!-- ProductsController -->
<g id="node10" class="node"><title>ProductsController</title>
<path fill="none" stroke="black" d="M-209.272,-222C-209.272,-222 -110.728,-222 -110.728,-222 -104.728,-222 -98.7275,-228 -98.7275,-234 -98.7275,-234 -98.7275,-356 -98.7275,-356 -98.7275,-362 -104.728,-368 -110.728,-368 -110.728,-368 -209.272,-368 -209.272,-368 -215.272,-368 -221.272,-362 -221.272,-356 -221.272,-356 -221.272,-234 -221.272,-234 -221.272,-228 -215.272,-222 -209.272,-222"/>
<text text-anchor="middle" x="-160" y="-352.8" font-family="Times,serif" font-size="14.00">ProductsController</text>
<polyline fill="none" stroke="black" points="-221.272,-346 -98.7275,-346 "/>
<text text-anchor="start" x="-213.272" y="-330.8" font-family="Times,serif" font-size="14.00">dislike</text>
<text text-anchor="start" x="-213.272" y="-316.8" font-family="Times,serif" font-size="14.00">index</text>
<text text-anchor="start" x="-213.272" y="-302.8" font-family="Times,serif" font-size="14.00">like</text>
<text text-anchor="start" x="-213.272" y="-288.8" font-family="Times,serif" font-size="14.00">show</text>
<polyline fill="none" stroke="black" points="-221.272,-282 -98.7275,-282 "/>
<polyline fill="none" stroke="black" points="-221.272,-258 -98.7275,-258 "/>
<text text-anchor="start" x="-213.272" y="-242.8" font-family="Times,serif" font-size="14.00">_layout</text>
<text text-anchor="start" x="-213.272" y="-228.8" font-family="Times,serif" font-size="14.00">set_product</text>
</g>
<!-- Users::RegistrationsController -->
<g id="node11" class="node"><title>Users::RegistrationsController</title>
<path fill="none" stroke="black" d="M-242.966,254C-242.966,254 -69.0342,254 -69.0342,254 -63.0342,254 -57.0342,248 -57.0342,242 -57.0342,242 -57.0342,176 -57.0342,176 -57.0342,170 -63.0342,164 -69.0342,164 -69.0342,164 -242.966,164 -242.966,164 -248.966,164 -254.966,170 -254.966,176 -254.966,176 -254.966,242 -254.966,242 -254.966,248 -248.966,254 -242.966,254"/>
<text text-anchor="middle" x="-156" y="179.2" font-family="Times,serif" font-size="14.00">Users::RegistrationsController</text>
<polyline fill="none" stroke="black" points="-254.966,186 -57.0342,186 "/>
<polyline fill="none" stroke="black" points="-254.966,210 -57.0342,210 "/>
<text text-anchor="start" x="-246.966" y="225.2" font-family="Times,serif" font-size="14.00">configure_permitted_parameters</text>
<polyline fill="none" stroke="black" points="-254.966,232 -57.0342,232 "/>
<text text-anchor="start" x="-246.966" y="247.2" font-family="Times,serif" font-size="14.00">_layout</text>
</g>
</g>
</svg>
