<?xml version="1.0" encoding="UTF-8" standalone="no"?>
<!DOCTYPE svg PUBLIC "-//W3C//DTD SVG 1.1//EN"
 "http://www.w3.org/Graphics/SVG/1.1/DTD/svg11.dtd">
<!-- Generated by graphviz version 2.38.0 (20140413.2041)
 -->
<!-- Title: models_diagram Pages: 1 -->
<svg width="571pt" height="225pt"
 viewBox="0.00 0.00 570.69 225.00" xmlns="http://www.w3.org/2000/svg" xmlns:xlink="http://www.w3.org/1999/xlink">
<g id="graph0" class="graph" transform="scale(1 1) rotate(0) translate(4 221)">
<title>models_diagram</title>
<polygon fill="none" stroke="none" points="-4,4 -4,-221 566.688,-221 566.688,4 -4,4"/>
<!-- _diagram_info -->
<g id="node1" class="node"><title>_diagram_info</title>
<text text-anchor="start" x="8" y="-202.6" font-family="Times,serif" font-size="13.00">Models diagram</text>
<text text-anchor="start" x="8" y="-189.6" font-family="Times,serif" font-size="13.00">Date: Jun 20 2016 &#45; 09:45</text>
<text text-anchor="start" x="8" y="-176.6" font-family="Times,serif" font-size="13.00">Migration version: 20160610123604</text>
<text text-anchor="start" x="8" y="-163.6" font-family="Times,serif" font-size="13.00">Generated by RailRoady 1.4.2</text>
<text text-anchor="start" x="8" y="-150.6" font-family="Times,serif" font-size="13.00">http://railroady.prestonlee.com</text>
</g>
<!-- Category -->
<g id="node2" class="node"><title>Category</title>
<ellipse fill="none" stroke="black" cx="267.688" cy="-180.5" rx="42.5456" ry="18"/>
<text text-anchor="middle" x="267.688" y="-176.3" font-family="Times,serif" font-size="14.00">Category</text>
</g>
<!-- Product -->
<g id="node7" class="node"><title>Product</title>
<ellipse fill="none" stroke="black" cx="267.688" cy="-90" rx="37.7352" ry="18"/>
<text text-anchor="middle" x="267.688" y="-85.8" font-family="Times,serif" font-size="14.00">Product</text>
</g>
<!-- Category&#45;&gt;Product -->
<g id="edge1" class="edge"><title>Category&#45;&gt;Product</title>
<path fill="none" stroke="#ebbc96" d="M267.688,-154.189C267.688,-142.971 267.688,-129.752 267.688,-118.311"/>
<ellipse fill="none" stroke="#ebbc96" cx="267.688" cy="-158.436" rx="4" ry="4"/>
<polygon fill="#ebbc96" stroke="#ebbc96" points="267.688,-118.011 272.188,-108.011 267.688,-113.011 267.688,-108.011 267.688,-108.011 267.688,-108.011 267.688,-113.011 263.188,-108.011 267.688,-118.011 267.688,-118.011"/>
</g>
<!-- City -->
<g id="node3" class="node"><title>City</title>
<ellipse fill="none" stroke="black" cx="462.688" cy="-90" rx="27" ry="18"/>
<text text-anchor="middle" x="462.688" y="-85.8" font-family="Times,serif" font-size="14.00">City</text>
</g>
<!-- Profile -->
<g id="node8" class="node"><title>Profile</title>
<ellipse fill="none" stroke="black" cx="462.688" cy="-18" rx="33.8857" ry="18"/>
<text text-anchor="middle" x="462.688" y="-13.8" font-family="Times,serif" font-size="14.00">Profile</text>
</g>
<!-- City&#45;&gt;Profile -->
<g id="edge2" class="edge"><title>City&#45;&gt;Profile</title>
<path fill="none" stroke="#9c5607" d="M462.688,-63.6398C462.688,-58.0629 462.688,-52.1319 462.688,-46.4761"/>
<ellipse fill="none" stroke="#9c5607" cx="462.688" cy="-67.6966" rx="4" ry="4"/>
<polygon fill="#9c5607" stroke="#9c5607" points="462.688,-46.1043 467.188,-36.1043 462.688,-41.1043 462.688,-36.1043 462.688,-36.1043 462.688,-36.1043 462.688,-41.1043 458.188,-36.1044 462.688,-46.1043 462.688,-46.1043"/>
</g>
<!-- Like -->
<g id="node4" class="node"><title>Like</title>
<ellipse fill="none" stroke="black" cx="267.688" cy="-18" rx="27" ry="18"/>
<text text-anchor="middle" x="267.688" y="-13.8" font-family="Times,serif" font-size="14.00">Like</text>
</g>
<!-- Permission -->
<g id="node5" class="node"><title>Permission</title>
<ellipse fill="none" stroke="black" cx="361.688" cy="-18" rx="49.3291" ry="18"/>
<text text-anchor="middle" x="361.688" y="-13.8" font-family="Times,serif" font-size="14.00">Permission</text>
</g>
<!-- Post -->
<g id="node6" class="node"><title>Post</title>
<ellipse fill="none" stroke="black" cx="535.688" cy="-180.5" rx="27" ry="18"/>
<text text-anchor="middle" x="535.688" y="-176.3" font-family="Times,serif" font-size="14.00">Post</text>
</g>
<!-- Product&#45;&gt;Like -->
<g id="edge3" class="edge"><title>Product&#45;&gt;Like</title>
<path fill="none" stroke="#df996e" d="M267.688,-63.6398C267.688,-58.0629 267.688,-52.1319 267.688,-46.4761"/>
<ellipse fill="none" stroke="#df996e" cx="267.688" cy="-67.6966" rx="4" ry="4"/>
<polygon fill="#df996e" stroke="#df996e" points="267.688,-46.1043 272.188,-36.1043 267.688,-41.1043 267.688,-36.1043 267.688,-36.1043 267.688,-36.1043 267.688,-41.1043 263.188,-36.1044 267.688,-46.1043 267.688,-46.1043"/>
</g>
<!-- Role -->
<g id="node9" class="node"><title>Role</title>
<ellipse fill="none" stroke="black" cx="372.688" cy="-180.5" rx="27" ry="18"/>
<text text-anchor="middle" x="372.688" y="-176.3" font-family="Times,serif" font-size="14.00">Role</text>
</g>
<!-- Role&#45;&gt;Permission -->
<g id="edge4" class="edge"><title>Role&#45;&gt;Permission</title>
<path fill="none" stroke="#5112f8" d="M381.133,-155.109C387.54,-133.171 394.223,-100.159 387.688,-72 385.533,-62.7152 381.513,-53.1819 377.266,-44.8058"/>
<ellipse fill="none" stroke="#5112f8" cx="379.898" cy="-159.119" rx="4.00001" ry="4.00001"/>
<polygon fill="#5112f8" stroke="#5112f8" points="377.217,-44.7139 376.423,-33.7768 374.84,-40.3148 372.463,-35.9157 372.463,-35.9157 372.463,-35.9157 374.84,-40.3148 368.504,-38.0546 377.217,-44.7139 377.217,-44.7139"/>
</g>
<!-- User -->
<g id="node11" class="node"><title>User</title>
<ellipse fill="none" stroke="black" cx="351.688" cy="-90" rx="27" ry="18"/>
<text text-anchor="middle" x="351.688" y="-85.8" font-family="Times,serif" font-size="14.00">User</text>
</g>
<!-- Role&#45;&gt;User -->
<g id="edge5" class="edge"><title>Role&#45;&gt;User</title>
<path fill="none" stroke="#81d7f8" d="M366.284,-152.515C363.679,-141.535 360.675,-128.873 358.071,-117.902"/>
<polygon fill="#81d7f8" stroke="#81d7f8" points="366.33,-152.706 364.26,-163.475 367.484,-157.571 368.639,-162.436 368.639,-162.436 368.639,-162.436 367.484,-157.571 373.017,-161.397 366.33,-152.706 366.33,-152.706"/>
<polygon fill="#81d7f8" stroke="#81d7f8" points="358.033,-117.741 360.103,-106.972 356.879,-112.876 355.724,-108.011 355.724,-108.011 355.724,-108.011 356.879,-112.876 351.346,-109.05 358.033,-117.741 358.033,-117.741"/>
</g>
<!-- State -->
<g id="node10" class="node"><title>State</title>
<ellipse fill="none" stroke="black" cx="462.688" cy="-180.5" rx="27.5804" ry="18"/>
<text text-anchor="middle" x="462.688" y="-176.3" font-family="Times,serif" font-size="14.00">State</text>
</g>
<!-- State&#45;&gt;City -->
<g id="edge6" class="edge"><title>State&#45;&gt;City</title>
<path fill="none" stroke="#e86323" d="M462.688,-154.189C462.688,-142.971 462.688,-129.752 462.688,-118.311"/>
<ellipse fill="none" stroke="#e86323" cx="462.688" cy="-158.436" rx="4" ry="4"/>
<polygon fill="#e86323" stroke="#e86323" points="462.688,-118.011 467.188,-108.011 462.688,-113.011 462.688,-108.011 462.688,-108.011 462.688,-108.011 462.688,-113.011 458.188,-108.011 462.688,-118.011 462.688,-118.011"/>
</g>
<!-- User&#45;&gt;Like -->
<g id="edge9" class="edge"><title>User&#45;&gt;Like</title>
<path fill="none" stroke="#c4000d" d="M329.225,-70.2812C317.601,-60.5942 303.407,-48.7661 291.582,-38.9117"/>
<ellipse fill="none" stroke="#c4000d" cx="332.419" cy="-72.9425" rx="4.00002" ry="4.00002"/>
<polygon fill="#c4000d" stroke="#c4000d" points="291.516,-38.8571 286.715,-28.9983 287.675,-35.6562 283.834,-32.4553 283.834,-32.4553 283.834,-32.4553 287.675,-35.6562 280.953,-35.9123 291.516,-38.8571 291.516,-38.8571"/>
</g>
<!-- User&#45;&gt;Permission -->
<g id="edge7" class="edge"><title>User&#45;&gt;Permission</title>
<path fill="none" stroke="#ead17a" d="M355.261,-63.9868C356.081,-58.2493 356.956,-52.1211 357.789,-46.2929"/>
<ellipse fill="none" stroke="#ead17a" cx="354.674" cy="-68.0952" rx="4.00001" ry="4.00001"/>
<polygon fill="#ead17a" stroke="#ead17a" points="357.806,-46.1748 363.675,-36.9117 358.513,-41.225 359.22,-36.2753 359.22,-36.2753 359.22,-36.2753 358.513,-41.225 354.765,-35.6389 357.806,-46.1748 357.806,-46.1748"/>
</g>
<!-- User&#45;&gt;Profile -->
<g id="edge8" class="edge"><title>User&#45;&gt;Profile</title>
<path fill="none" stroke="#b5b159" d="M377.603,-72.657C394.637,-61.915 416.924,-47.8601 434.415,-36.8297"/>
<ellipse fill="none" stroke="#b5b159" cx="374.153" cy="-74.8329" rx="4.00002" ry="4.00002"/>
<ellipse fill="#b5b159" stroke="#b5b159" cx="438.205" cy="-34.4398" rx="4.00002" ry="4.00002"/>
</g>
</g>
</svg>
