<?xml version="1.0" encoding="UTF-8" standalone="no"?>
<!DOCTYPE svg PUBLIC "-//W3C//DTD SVG 1.1//EN"
 "http://www.w3.org/Graphics/SVG/1.1/DTD/svg11.dtd">
<!-- Generated by graphviz version 2.38.0 (20140413.2041)
 -->
<!-- Title: models_diagram Pages: 1 -->
<svg width="951pt" height="579pt"
 viewBox="0.00 0.00 951.19 579.00" xmlns="http://www.w3.org/2000/svg" xmlns:xlink="http://www.w3.org/1999/xlink">
<g id="graph0" class="graph" transform="scale(1 1) rotate(0) translate(4 575)">
<title>models_diagram</title>
<polygon fill="none" stroke="none" points="-4,4 -4,-575 947.193,-575 947.193,4 -4,4"/>
<!-- _diagram_info -->
<g id="node1" class="node"><title>_diagram_info</title>
<text text-anchor="start" x="8" y="-535.6" font-family="Times,serif" font-size="13.00">Models diagram</text>
<text text-anchor="start" x="8" y="-522.6" font-family="Times,serif" font-size="13.00">Date: Jun 20 2016 &#45; 09:45</text>
<text text-anchor="start" x="8" y="-509.6" font-family="Times,serif" font-size="13.00">Migration version: 20160610123604</text>
<text text-anchor="start" x="8" y="-496.6" font-family="Times,serif" font-size="13.00">Generated by RailRoady 1.4.2</text>
<text text-anchor="start" x="8" y="-483.6" font-family="Times,serif" font-size="13.00">http://railroady.prestonlee.com</text>
</g>
<!-- Category -->
<g id="node2" class="node"><title>Category</title>
<path fill="none" stroke="black" d="M237.182,-463.5C237.182,-463.5 346.193,-463.5 346.193,-463.5 352.193,-463.5 358.193,-469.5 358.193,-475.5 358.193,-475.5 358.193,-551.5 358.193,-551.5 358.193,-557.5 352.193,-563.5 346.193,-563.5 346.193,-563.5 237.182,-563.5 237.182,-563.5 231.182,-563.5 225.182,-557.5 225.182,-551.5 225.182,-551.5 225.182,-475.5 225.182,-475.5 225.182,-469.5 231.182,-463.5 237.182,-463.5"/>
<text text-anchor="middle" x="291.688" y="-548.3" font-family="Times,serif" font-size="14.00">Category</text>
<polyline fill="none" stroke="black" points="225.182,-541.5 358.193,-541.5 "/>
<text text-anchor="start" x="233.182" y="-526.3" font-family="Times,serif" font-size="14.00">id :int(11)</text>
<text text-anchor="start" x="233.182" y="-512.3" font-family="Times,serif" font-size="14.00">name :varchar(255)</text>
<text text-anchor="start" x="233.182" y="-498.3" font-family="Times,serif" font-size="14.00">created_at :datetime</text>
<text text-anchor="start" x="233.182" y="-484.3" font-family="Times,serif" font-size="14.00">updated_at :datetime</text>
<text text-anchor="start" x="233.182" y="-470.3" font-family="Times,serif" font-size="14.00">status :tinyint(1)</text>
</g>
<!-- Product -->
<g id="node7" class="node"><title>Product</title>
<path fill="none" stroke="black" d="M237.182,-235.5C237.182,-235.5 346.193,-235.5 346.193,-235.5 352.193,-235.5 358.193,-241.5 358.193,-247.5 358.193,-247.5 358.193,-365.5 358.193,-365.5 358.193,-371.5 352.193,-377.5 346.193,-377.5 346.193,-377.5 237.182,-377.5 237.182,-377.5 231.182,-377.5 225.182,-371.5 225.182,-365.5 225.182,-365.5 225.182,-247.5 225.182,-247.5 225.182,-241.5 231.182,-235.5 237.182,-235.5"/>
<text text-anchor="middle" x="291.688" y="-362.3" font-family="Times,serif" font-size="14.00">Product</text>
<polyline fill="none" stroke="black" points="225.182,-355.5 358.193,-355.5 "/>
<text text-anchor="start" x="233.182" y="-340.3" font-family="Times,serif" font-size="14.00">status :tinyint(1)</text>
<text text-anchor="start" x="233.182" y="-326.3" font-family="Times,serif" font-size="14.00">category_id :int(11)</text>
<text text-anchor="start" x="233.182" y="-312.3" font-family="Times,serif" font-size="14.00">name :varchar(255)</text>
<text text-anchor="start" x="233.182" y="-298.3" font-family="Times,serif" font-size="14.00">description :text</text>
<text text-anchor="start" x="233.182" y="-284.3" font-family="Times,serif" font-size="14.00">price :float</text>
<text text-anchor="start" x="233.182" y="-270.3" font-family="Times,serif" font-size="14.00">created_at :datetime</text>
<text text-anchor="start" x="233.182" y="-256.3" font-family="Times,serif" font-size="14.00">updated_at :datetime</text>
<text text-anchor="start" x="233.182" y="-242.3" font-family="Times,serif" font-size="14.00">id :int(11)</text>
</g>
<!-- Category&#45;&gt;Product -->
<g id="edge1" class="edge"><title>Category&#45;&gt;Product</title>
<path fill="none" stroke="#a668db" d="M291.688,-455.384C291.688,-434.453 291.688,-410.359 291.688,-387.777"/>
<ellipse fill="none" stroke="#a668db" cx="291.688" cy="-459.397" rx="4" ry="4"/>
<polygon fill="#a668db" stroke="#a668db" points="291.688,-387.524 296.188,-377.524 291.688,-382.524 291.688,-377.524 291.688,-377.524 291.688,-377.524 291.688,-382.524 287.188,-377.524 291.688,-387.524 291.688,-387.524"/>
</g>
<!-- City -->
<g id="node3" class="node"><title>City</title>
<path fill="none" stroke="black" d="M665.182,-249.5C665.182,-249.5 774.193,-249.5 774.193,-249.5 780.193,-249.5 786.193,-255.5 786.193,-261.5 786.193,-261.5 786.193,-351.5 786.193,-351.5 786.193,-357.5 780.193,-363.5 774.193,-363.5 774.193,-363.5 665.182,-363.5 665.182,-363.5 659.182,-363.5 653.182,-357.5 653.182,-351.5 653.182,-351.5 653.182,-261.5 653.182,-261.5 653.182,-255.5 659.182,-249.5 665.182,-249.5"/>
<text text-anchor="middle" x="719.688" y="-348.3" font-family="Times,serif" font-size="14.00">City</text>
<polyline fill="none" stroke="black" points="653.182,-341.5 786.193,-341.5 "/>
<text text-anchor="start" x="661.182" y="-326.3" font-family="Times,serif" font-size="14.00">id :int(11)</text>
<text text-anchor="start" x="661.182" y="-312.3" font-family="Times,serif" font-size="14.00">state_id :int(11)</text>
<text text-anchor="start" x="661.182" y="-298.3" font-family="Times,serif" font-size="14.00">name :varchar(255)</text>
<text text-anchor="start" x="661.182" y="-284.3" font-family="Times,serif" font-size="14.00">capital :tinyint(1)</text>
<text text-anchor="start" x="661.182" y="-270.3" font-family="Times,serif" font-size="14.00">created_at :datetime</text>
<text text-anchor="start" x="661.182" y="-256.3" font-family="Times,serif" font-size="14.00">updated_at :datetime</text>
</g>
<!-- Profile -->
<g id="node8" class="node"><title>Profile</title>
<path fill="none" stroke="black" d="M639.969,-0.5C639.969,-0.5 761.407,-0.5 761.407,-0.5 767.407,-0.5 773.407,-6.5 773.407,-12.5 773.407,-12.5 773.407,-144.5 773.407,-144.5 773.407,-150.5 767.407,-156.5 761.407,-156.5 761.407,-156.5 639.969,-156.5 639.969,-156.5 633.969,-156.5 627.969,-150.5 627.969,-144.5 627.969,-144.5 627.969,-12.5 627.969,-12.5 627.969,-6.5 633.969,-0.5 639.969,-0.5"/>
<text text-anchor="middle" x="700.688" y="-141.3" font-family="Times,serif" font-size="14.00">Profile</text>
<polyline fill="none" stroke="black" points="627.969,-134.5 773.407,-134.5 "/>
<text text-anchor="start" x="635.969" y="-119.3" font-family="Times,serif" font-size="14.00">updated_at :datetime</text>
<text text-anchor="start" x="635.969" y="-105.3" font-family="Times,serif" font-size="14.00">city_id :int(11)</text>
<text text-anchor="start" x="635.969" y="-91.3" font-family="Times,serif" font-size="14.00">user_id :int(11)</text>
<text text-anchor="start" x="635.969" y="-77.3" font-family="Times,serif" font-size="14.00">fullname :varchar(255)</text>
<text text-anchor="start" x="635.969" y="-63.3" font-family="Times,serif" font-size="14.00">cpf :varchar(255)</text>
<text text-anchor="start" x="635.969" y="-49.3" font-family="Times,serif" font-size="14.00">rg :varchar(255)</text>
<text text-anchor="start" x="635.969" y="-35.3" font-family="Times,serif" font-size="14.00">date_of_birth :date</text>
<text text-anchor="start" x="635.969" y="-21.3" font-family="Times,serif" font-size="14.00">created_at :datetime</text>
<text text-anchor="start" x="635.969" y="-7.3" font-family="Times,serif" font-size="14.00">id :int(11)</text>
</g>
<!-- City&#45;&gt;Profile -->
<g id="edge2" class="edge"><title>City&#45;&gt;Profile</title>
<path fill="none" stroke="#941631" d="M714.292,-241.319C712.346,-218.168 710.115,-191.633 708.03,-166.838"/>
<ellipse fill="none" stroke="#941631" cx="714.632" cy="-245.359" rx="4" ry="4"/>
<polygon fill="#941631" stroke="#941631" points="708.016,-166.667 711.662,-156.325 707.597,-161.685 707.178,-156.702 707.178,-156.702 707.178,-156.702 707.597,-161.685 702.694,-157.079 708.016,-166.667 708.016,-166.667"/>
</g>
<!-- Like -->
<g id="node4" class="node"><title>Like</title>
<path fill="none" stroke="black" d="M278.182,-28.5C278.182,-28.5 387.193,-28.5 387.193,-28.5 393.193,-28.5 399.193,-34.5 399.193,-40.5 399.193,-40.5 399.193,-116.5 399.193,-116.5 399.193,-122.5 393.193,-128.5 387.193,-128.5 387.193,-128.5 278.182,-128.5 278.182,-128.5 272.182,-128.5 266.182,-122.5 266.182,-116.5 266.182,-116.5 266.182,-40.5 266.182,-40.5 266.182,-34.5 272.182,-28.5 278.182,-28.5"/>
<text text-anchor="middle" x="332.688" y="-113.3" font-family="Times,serif" font-size="14.00">Like</text>
<polyline fill="none" stroke="black" points="266.182,-106.5 399.193,-106.5 "/>
<text text-anchor="start" x="274.182" y="-91.3" font-family="Times,serif" font-size="14.00">id :int(11)</text>
<text text-anchor="start" x="274.182" y="-77.3" font-family="Times,serif" font-size="14.00">product_id :int(11)</text>
<text text-anchor="start" x="274.182" y="-63.3" font-family="Times,serif" font-size="14.00">user_id :int(11)</text>
<text text-anchor="start" x="274.182" y="-49.3" font-family="Times,serif" font-size="14.00">created_at :datetime</text>
<text text-anchor="start" x="274.182" y="-35.3" font-family="Times,serif" font-size="14.00">updated_at :datetime</text>
</g>
<!-- Permission -->
<g id="node5" class="node"><title>Permission</title>
<path fill="none" stroke="black" d="M451.182,-28.5C451.182,-28.5 560.193,-28.5 560.193,-28.5 566.193,-28.5 572.193,-34.5 572.193,-40.5 572.193,-40.5 572.193,-116.5 572.193,-116.5 572.193,-122.5 566.193,-128.5 560.193,-128.5 560.193,-128.5 451.182,-128.5 451.182,-128.5 445.182,-128.5 439.182,-122.5 439.182,-116.5 439.182,-116.5 439.182,-40.5 439.182,-40.5 439.182,-34.5 445.182,-28.5 451.182,-28.5"/>
<text text-anchor="middle" x="505.688" y="-113.3" font-family="Times,serif" font-size="14.00">Permission</text>
<polyline fill="none" stroke="black" points="439.182,-106.5 572.193,-106.5 "/>
<text text-anchor="start" x="447.182" y="-91.3" font-family="Times,serif" font-size="14.00">id :int(11)</text>
<text text-anchor="start" x="447.182" y="-77.3" font-family="Times,serif" font-size="14.00">role_id :int(11)</text>
<text text-anchor="start" x="447.182" y="-63.3" font-family="Times,serif" font-size="14.00">user_id :int(11)</text>
<text text-anchor="start" x="447.182" y="-49.3" font-family="Times,serif" font-size="14.00">created_at :datetime</text>
<text text-anchor="start" x="447.182" y="-35.3" font-family="Times,serif" font-size="14.00">updated_at :datetime</text>
</g>
<!-- Post -->
<g id="node6" class="node"><title>Post</title>
<path fill="none" stroke="black" d="M822.182,-456.5C822.182,-456.5 931.193,-456.5 931.193,-456.5 937.193,-456.5 943.193,-462.5 943.193,-468.5 943.193,-468.5 943.193,-558.5 943.193,-558.5 943.193,-564.5 937.193,-570.5 931.193,-570.5 931.193,-570.5 822.182,-570.5 822.182,-570.5 816.182,-570.5 810.182,-564.5 810.182,-558.5 810.182,-558.5 810.182,-468.5 810.182,-468.5 810.182,-462.5 816.182,-456.5 822.182,-456.5"/>
<text text-anchor="middle" x="876.688" y="-555.3" font-family="Times,serif" font-size="14.00">Post</text>
<polyline fill="none" stroke="black" points="810.182,-548.5 943.193,-548.5 "/>
<text text-anchor="start" x="818.182" y="-533.3" font-family="Times,serif" font-size="14.00">id :int(11)</text>
<text text-anchor="start" x="818.182" y="-519.3" font-family="Times,serif" font-size="14.00">title :varchar(255)</text>
<text text-anchor="start" x="818.182" y="-505.3" font-family="Times,serif" font-size="14.00">content :text</text>
<text text-anchor="start" x="818.182" y="-491.3" font-family="Times,serif" font-size="14.00">status :tinyint(1)</text>
<text text-anchor="start" x="818.182" y="-477.3" font-family="Times,serif" font-size="14.00">created_at :datetime</text>
<text text-anchor="start" x="818.182" y="-463.3" font-family="Times,serif" font-size="14.00">updated_at :datetime</text>
</g>
<!-- Product&#45;&gt;Like -->
<g id="edge3" class="edge"><title>Product&#45;&gt;Like</title>
<path fill="none" stroke="#3299a6" d="M305.926,-227.015C311.188,-198.013 317.058,-165.656 321.956,-138.653"/>
<ellipse fill="none" stroke="#3299a6" cx="305.15" cy="-231.295" rx="4.00001" ry="4.00001"/>
<polygon fill="#3299a6" stroke="#3299a6" points="321.998,-138.424 328.211,-129.388 322.891,-133.504 323.783,-128.584 323.783,-128.584 323.783,-128.584 322.891,-133.504 319.355,-127.781 321.998,-138.424 321.998,-138.424"/>
</g>
<!-- Role -->
<g id="node9" class="node"><title>Role</title>
<path fill="none" stroke="black" d="M451.744,-456.5C451.744,-456.5 585.631,-456.5 585.631,-456.5 591.631,-456.5 597.631,-462.5 597.631,-468.5 597.631,-468.5 597.631,-558.5 597.631,-558.5 597.631,-564.5 591.631,-570.5 585.631,-570.5 585.631,-570.5 451.744,-570.5 451.744,-570.5 445.744,-570.5 439.744,-564.5 439.744,-558.5 439.744,-558.5 439.744,-468.5 439.744,-468.5 439.744,-462.5 445.744,-456.5 451.744,-456.5"/>
<text text-anchor="middle" x="518.688" y="-555.3" font-family="Times,serif" font-size="14.00">Role</text>
<polyline fill="none" stroke="black" points="439.744,-548.5 597.631,-548.5 "/>
<text text-anchor="start" x="447.744" y="-533.3" font-family="Times,serif" font-size="14.00">id :int(11)</text>
<text text-anchor="start" x="447.744" y="-519.3" font-family="Times,serif" font-size="14.00">name :varchar(255)</text>
<text text-anchor="start" x="447.744" y="-505.3" font-family="Times,serif" font-size="14.00">value :varchar(255)</text>
<text text-anchor="start" x="447.744" y="-491.3" font-family="Times,serif" font-size="14.00">description :varchar(255)</text>
<text text-anchor="start" x="447.744" y="-477.3" font-family="Times,serif" font-size="14.00">created_at :datetime</text>
<text text-anchor="start" x="447.744" y="-463.3" font-family="Times,serif" font-size="14.00">updated_at :datetime</text>
</g>
<!-- Role&#45;&gt;Permission -->
<g id="edge4" class="edge"><title>Role&#45;&gt;Permission</title>
<path fill="none" stroke="#a76713" d="M588.494,-449.981C595.461,-440.643 601.496,-430.574 605.688,-420 642.864,-326.21 641.335,-287.382 605.688,-193 597.842,-172.228 584.271,-152.796 569.612,-136.084"/>
<ellipse fill="none" stroke="#a76713" cx="585.998" cy="-453.175" rx="4.00002" ry="4.00002"/>
<polygon fill="#a76713" stroke="#a76713" points="569.54,-136.005 566.148,-125.577 566.178,-132.304 562.816,-128.603 562.816,-128.603 562.816,-128.603 566.178,-132.304 559.485,-131.628 569.54,-136.005 569.54,-136.005"/>
</g>
<!-- User -->
<g id="node11" class="node"><title>User</title>
<path fill="none" stroke="black" d="M388.641,-193.5C388.641,-193.5 584.735,-193.5 584.735,-193.5 590.735,-193.5 596.735,-199.5 596.735,-205.5 596.735,-205.5 596.735,-407.5 596.735,-407.5 596.735,-413.5 590.735,-419.5 584.735,-419.5 584.735,-419.5 388.641,-419.5 388.641,-419.5 382.641,-419.5 376.641,-413.5 376.641,-407.5 376.641,-407.5 376.641,-205.5 376.641,-205.5 376.641,-199.5 382.641,-193.5 388.641,-193.5"/>
<text text-anchor="middle" x="486.688" y="-404.3" font-family="Times,serif" font-size="14.00">User</text>
<polyline fill="none" stroke="black" points="376.641,-397.5 596.735,-397.5 "/>
<text text-anchor="start" x="384.641" y="-382.3" font-family="Times,serif" font-size="14.00">name :varchar(255)</text>
<text text-anchor="start" x="384.641" y="-368.3" font-family="Times,serif" font-size="14.00">email :varchar(255)</text>
<text text-anchor="start" x="384.641" y="-354.3" font-family="Times,serif" font-size="14.00">encrypted_password :varchar(255)</text>
<text text-anchor="start" x="384.641" y="-340.3" font-family="Times,serif" font-size="14.00">reset_password_token :varchar(255)</text>
<text text-anchor="start" x="384.641" y="-326.3" font-family="Times,serif" font-size="14.00">reset_password_sent_at :datetime</text>
<text text-anchor="start" x="384.641" y="-312.3" font-family="Times,serif" font-size="14.00">remember_created_at :datetime</text>
<text text-anchor="start" x="384.641" y="-298.3" font-family="Times,serif" font-size="14.00">sign_in_count :int(11)</text>
<text text-anchor="start" x="384.641" y="-284.3" font-family="Times,serif" font-size="14.00">current_sign_in_at :datetime</text>
<text text-anchor="start" x="384.641" y="-270.3" font-family="Times,serif" font-size="14.00">last_sign_in_at :datetime</text>
<text text-anchor="start" x="384.641" y="-256.3" font-family="Times,serif" font-size="14.00">current_sign_in_ip :varchar(255)</text>
<text text-anchor="start" x="384.641" y="-242.3" font-family="Times,serif" font-size="14.00">last_sign_in_ip :varchar(255)</text>
<text text-anchor="start" x="384.641" y="-228.3" font-family="Times,serif" font-size="14.00">created_at :datetime</text>
<text text-anchor="start" x="384.641" y="-214.3" font-family="Times,serif" font-size="14.00">updated_at :datetime</text>
<text text-anchor="start" x="384.641" y="-200.3" font-family="Times,serif" font-size="14.00">id :int(11)</text>
</g>
<!-- Role&#45;&gt;User -->
<g id="edge5" class="edge"><title>Role&#45;&gt;User</title>
<path fill="none" stroke="#dcaf08" d="M508.395,-446.563C507.554,-441.175 506.689,-435.632 505.811,-430.005"/>
<polygon fill="#dcaf08" stroke="#dcaf08" points="508.401,-446.602 505.497,-457.177 509.172,-451.543 509.944,-456.483 509.944,-456.483 509.944,-456.483 509.172,-451.543 514.39,-455.789 508.401,-446.602 508.401,-446.602"/>
<polygon fill="#dcaf08" stroke="#dcaf08" points="505.76,-429.683 508.664,-419.108 504.989,-424.743 504.218,-419.802 504.218,-419.802 504.218,-419.802 504.989,-424.743 499.772,-420.497 505.76,-429.683 505.76,-429.683"/>
</g>
<!-- State -->
<g id="node10" class="node"><title>State</title>
<path fill="none" stroke="black" d="M659.358,-463.5C659.358,-463.5 780.017,-463.5 780.017,-463.5 786.017,-463.5 792.017,-469.5 792.017,-475.5 792.017,-475.5 792.017,-551.5 792.017,-551.5 792.017,-557.5 786.017,-563.5 780.017,-563.5 780.017,-563.5 659.358,-563.5 659.358,-563.5 653.358,-563.5 647.358,-557.5 647.358,-551.5 647.358,-551.5 647.358,-475.5 647.358,-475.5 647.358,-469.5 653.358,-463.5 659.358,-463.5"/>
<text text-anchor="middle" x="719.688" y="-548.3" font-family="Times,serif" font-size="14.00">State</text>
<polyline fill="none" stroke="black" points="647.358,-541.5 792.017,-541.5 "/>
<text text-anchor="start" x="655.358" y="-526.3" font-family="Times,serif" font-size="14.00">id :int(11)</text>
<text text-anchor="start" x="655.358" y="-512.3" font-family="Times,serif" font-size="14.00">name :varchar(255)</text>
<text text-anchor="start" x="655.358" y="-498.3" font-family="Times,serif" font-size="14.00">acronym :varchar(255)</text>
<text text-anchor="start" x="655.358" y="-484.3" font-family="Times,serif" font-size="14.00">created_at :datetime</text>
<text text-anchor="start" x="655.358" y="-470.3" font-family="Times,serif" font-size="14.00">updated_at :datetime</text>
</g>
<!-- State&#45;&gt;City -->
<g id="edge6" class="edge"><title>State&#45;&gt;City</title>
<path fill="none" stroke="#4c1f8e" d="M719.688,-455.127C719.688,-429.929 719.688,-400.185 719.688,-374.023"/>
<ellipse fill="none" stroke="#4c1f8e" cx="719.688" cy="-459.397" rx="4" ry="4"/>
<polygon fill="#4c1f8e" stroke="#4c1f8e" points="719.688,-373.813 724.188,-363.813 719.688,-368.813 719.688,-363.813 719.688,-363.813 719.688,-363.813 719.688,-368.813 715.188,-363.813 719.688,-373.813 719.688,-373.813"/>
</g>
<!-- User&#45;&gt;Like -->
<g id="edge9" class="edge"><title>User&#45;&gt;Like</title>
<path fill="none" stroke="#7ff13d" d="M405.823,-186.829C394.032,-169.524 382.361,-152.397 371.921,-137.076"/>
<ellipse fill="none" stroke="#7ff13d" cx="408.112" cy="-190.188" rx="4.00002" ry="4.00002"/>
<polygon fill="#7ff13d" stroke="#7ff13d" points="371.886,-137.025 369.974,-126.227 369.071,-132.893 366.255,-128.761 366.255,-128.761 366.255,-128.761 369.071,-132.893 362.536,-131.295 371.886,-137.025 371.886,-137.025"/>
</g>
<!-- User&#45;&gt;Permission -->
<g id="edge7" class="edge"><title>User&#45;&gt;Permission</title>
<path fill="none" stroke="#f74950" d="M496.776,-185.497C498.133,-169.36 499.474,-153.415 500.687,-138.983"/>
<ellipse fill="none" stroke="#f74950" cx="496.439" cy="-189.507" rx="4" ry="4"/>
<polygon fill="#f74950" stroke="#f74950" points="500.708,-138.726 506.03,-129.138 501.127,-133.744 501.546,-128.761 501.546,-128.761 501.546,-128.761 501.127,-133.744 497.062,-128.384 500.708,-138.726 500.708,-138.726"/>
</g>
<!-- User&#45;&gt;Profile -->
<g id="edge8" class="edge"><title>User&#45;&gt;Profile</title>
<path fill="none" stroke="#0f7aa8" d="M598.313,-187.615C606.292,-179.189 614.237,-170.799 621.969,-162.633"/>
<ellipse fill="none" stroke="#0f7aa8" cx="595.498" cy="-190.589" rx="4.00002" ry="4.00002"/>
<ellipse fill="#0f7aa8" stroke="#0f7aa8" cx="625.087" cy="-159.34" rx="4.00002" ry="4.00002"/>
</g>
</g>
</svg>
